<svg width="119" height="137" viewBox="0 0 119 137" fill="none" xmlns="http://www.w3.org/2000/svg">
<path fill-rule="evenodd" clip-rule="evenodd" d="M57.7967 0.00218555V0L57.7984 0.00107111L57.7997 0.000237056V0.0018727L118.049 36.7898V40.1546H118.047V101.732H118.044L58.2375 136.994V136.999L58.2334 136.997L58.2284 137V136.994L0.95485 102.403L0.955635 97.0199H0.956609V41.5006H0.951235L0.951172 36.117L57.7967 0.00218555ZM9.03222 97.0208L58.2285 127.524V127.303L108.625 97.0198H108.626V40.1531L57.7985 9.87208L9.03222 41.4973V97.0208ZM43.4069 28.1727L52.5042 21.2269V94.592L47.9555 97.0376L43.4069 94.592V28.1727ZM70.2698 24.3408L79.0183 31.0704V64.0459L85.748 69.0931L90.4588 62.027V38.4731L98.5344 43.1839V62.027L91.8047 73.4674L100.553 81.543V93.6564L93.8236 98.3672V86.9268L79.0183 74.8133V105.77L58.4928 118.556L17.1053 95.0024L25.8539 90.9646L58.4928 109.471L70.2698 101.732V24.3408ZM17.1053 43.8545L25.8539 38.4708V90.9623L17.1053 95.0001V43.8545Z" fill="white"/>
</svg>
