<svg width="25" height="24" viewBox="0 0 25 24" fill="none" xmlns="http://www.w3.org/2000/svg">
<path d="M5.56773 15.1677C5.56773 16.5609 4.44172 17.6869 3.04851 17.6869C1.65531 17.6869 0.529297 16.5609 0.529297 15.1677C0.529297 13.7745 1.65531 12.6484 3.04851 12.6484H5.56773V15.1677Z" fill="white"/>
<path d="M6.82617 15.1686C6.82617 13.7754 7.95218 12.6494 9.34539 12.6494C10.7386 12.6494 11.8646 13.7754 11.8646 15.1686V21.4667C11.8646 22.8599 10.7386 23.9859 9.34539 23.9859C7.95218 23.9859 6.82617 22.8599 6.82617 21.4667V15.1686Z" fill="white"/>
<path d="M9.34539 5.05308C7.95218 5.05308 6.82617 3.92707 6.82617 2.53387C6.82617 1.14066 7.95218 0.0146484 9.34539 0.0146484C10.7386 0.0146484 11.8646 1.14066 11.8646 2.53387V5.05308H9.34539Z" fill="white"/>
<path d="M9.34611 6.33203C10.7393 6.33203 11.8653 7.45805 11.8653 8.85125C11.8653 10.2445 10.7393 11.3705 9.34611 11.3705H3.02898C1.63578 11.3705 0.509766 10.2445 0.509766 8.85125C0.509766 7.45805 1.63578 6.33203 3.02898 6.33203H9.34611Z" fill="white"/>
<path d="M19.4414 8.85125C19.4414 7.45805 20.5674 6.33203 21.9606 6.33203C23.3538 6.33203 24.4798 7.45805 24.4798 8.85125C24.4798 10.2445 23.3538 11.3705 21.9606 11.3705H19.4414V8.85125Z" fill="white"/>
<path d="M18.183 8.85099C18.183 10.2442 17.057 11.3702 15.6637 11.3702C14.2705 11.3702 13.1445 10.2442 13.1445 8.85099V2.53387C13.1445 1.14066 14.2705 0.0146484 15.6637 0.0146484C17.057 0.0146484 18.183 1.14066 18.183 2.53387V8.85099Z" fill="white"/>
<path d="M15.6637 18.9473C17.057 18.9473 18.183 20.0733 18.183 21.4665C18.183 22.8597 17.057 23.9857 15.6637 23.9857C14.2705 23.9857 13.1445 22.8597 13.1445 21.4665V18.9473H15.6637Z" fill="white"/>
<path d="M15.6638 17.6869C14.2705 17.6869 13.1445 16.5609 13.1445 15.1677C13.1445 13.7745 14.2705 12.6484 15.6638 12.6484H21.9809C23.3741 12.6484 24.5001 13.7745 24.5001 15.1677C24.5001 16.5609 23.3741 17.6869 21.9809 17.6869H15.6638Z" fill="white"/>
</svg>
