<svg width="54" height="55" viewBox="0 0 54 55" fill="none" xmlns="http://www.w3.org/2000/svg">
<path d="M54 27.5C54 34.6608 51.1554 41.5284 46.0919 46.5919C41.0284 51.6554 34.1608 54.5 27 54.5C19.8392 54.5 12.9716 51.6554 7.90812 46.5919C2.84464 41.5284 0 34.6608 0 27.5C0 20.3392 2.84464 13.4716 7.90812 8.40812C12.9716 3.34464 19.8392 0.5 27 0.5C34.1608 0.5 41.0284 3.34464 46.0919 8.40812C51.1554 13.4716 54 20.3392 54 27.5ZM22.9163 17.6889C22.6639 17.5092 22.367 17.4025 22.0581 17.3804C21.7491 17.3582 21.44 17.4216 21.1647 17.5634C20.8893 17.7053 20.6583 17.9202 20.497 18.1846C20.3356 18.449 20.2502 18.7528 20.25 19.0625V35.9375C20.2502 36.2472 20.3356 36.551 20.497 36.8154C20.6583 37.0798 20.8893 37.2947 21.1647 37.4366C21.44 37.5784 21.7491 37.6418 22.0581 37.6196C22.367 37.5975 22.6639 37.4908 22.9163 37.3111L34.7287 28.8736C34.9475 28.7175 35.1258 28.5114 35.2488 28.2725C35.3719 28.0336 35.436 27.7687 35.436 27.5C35.436 27.2313 35.3719 26.9664 35.2488 26.7275C35.1258 26.4886 34.9475 26.2825 34.7287 26.1264L22.9163 17.6889Z" fill="white"/>
</svg>
