<svg width="14" height="13" viewBox="0 0 14 13" fill="none" xmlns="http://www.w3.org/2000/svg">
<path d="M7.00039 1.40039C8.65039 1.40039 8.87539 1.40039 9.55039 1.40039C10.1504 1.40039 10.4504 1.55039 10.6754 1.62539C10.9754 1.77539 11.2004 1.85039 11.4254 2.07539C11.6504 2.30039 11.8004 2.52539 11.8754 2.82539C11.9504 3.05039 12.0254 3.35039 12.1004 3.95039C12.1004 4.62539 12.1004 4.77539 12.1004 6.50039C12.1004 8.22539 12.1004 8.37539 12.1004 9.05039C12.1004 9.65039 11.9504 9.95039 11.8754 10.1754C11.7254 10.4754 11.6504 10.7004 11.4254 10.9254C11.2004 11.1504 10.9754 11.3004 10.6754 11.3754C10.4504 11.4504 10.1504 11.5254 9.55039 11.6004C8.87539 11.6004 8.72539 11.6004 7.00039 11.6004C5.27539 11.6004 5.12539 11.6004 4.45039 11.6004C3.85039 11.6004 3.55039 11.4504 3.32539 11.3754C3.02539 11.2254 2.80039 11.1504 2.57539 10.9254C2.35039 10.7004 2.20039 10.4754 2.12539 10.1754C2.05039 9.95039 1.97539 9.65039 1.90039 9.05039C1.90039 8.37539 1.90039 8.22539 1.90039 6.50039C1.90039 4.77539 1.90039 4.62539 1.90039 3.95039C1.90039 3.35039 2.05039 3.05039 2.12539 2.82539C2.27539 2.52539 2.35039 2.30039 2.57539 2.07539C2.80039 1.85039 3.02539 1.70039 3.32539 1.62539C3.55039 1.55039 3.85039 1.47539 4.45039 1.40039C5.12539 1.40039 5.35039 1.40039 7.00039 1.40039ZM7.00039 0.275391C5.27539 0.275391 5.12539 0.275391 4.45039 0.275391C3.77539 0.275391 3.32539 0.425391 2.95039 0.575391C2.57539 0.725391 2.20039 0.950391 1.82539 1.32539C1.45039 1.70039 1.30039 2.00039 1.07539 2.45039C0.925391 2.82539 0.850391 3.27539 0.775391 3.95039C0.775391 4.62539 0.775391 4.85039 0.775391 6.50039C0.775391 8.22539 0.775391 8.37539 0.775391 9.05039C0.775391 9.72539 0.925391 10.1754 1.07539 10.5504C1.22539 10.9254 1.45039 11.3004 1.82539 11.6754C2.20039 12.0504 2.50039 12.2004 2.95039 12.4254C3.32539 12.5754 3.77539 12.6504 4.45039 12.7254C5.12539 12.7254 5.35039 12.7254 7.00039 12.7254C8.65039 12.7254 8.87539 12.7254 9.55039 12.7254C10.2254 12.7254 10.6754 12.5754 11.0504 12.4254C11.4254 12.2754 11.8004 12.0504 12.1754 11.6754C12.5504 11.3004 12.7004 11.0004 12.9254 10.5504C13.0754 10.1754 13.1504 9.72539 13.2254 9.05039C13.2254 8.37539 13.2254 8.15039 13.2254 6.50039C13.2254 4.85039 13.2254 4.62539 13.2254 3.95039C13.2254 3.27539 13.0754 2.82539 12.9254 2.45039C12.7754 2.07539 12.5504 1.70039 12.1754 1.32539C11.8004 0.950391 11.5004 0.800391 11.0504 0.575391C10.6754 0.425391 10.2254 0.350391 9.55039 0.275391C8.87539 0.275391 8.72539 0.275391 7.00039 0.275391Z" fill="#ABABAB"/>
<path d="M7.00039 3.27539C5.20039 3.27539 3.77539 4.70039 3.77539 6.50039C3.77539 8.30039 5.20039 9.72539 7.00039 9.72539C8.80039 9.72539 10.2254 8.30039 10.2254 6.50039C10.2254 4.70039 8.80039 3.27539 7.00039 3.27539ZM7.00039 8.60039C5.87539 8.60039 4.90039 7.70039 4.90039 6.50039C4.90039 5.37539 5.80039 4.40039 7.00039 4.40039C8.12539 4.40039 9.10039 5.30039 9.10039 6.50039C9.10039 7.62539 8.12539 8.60039 7.00039 8.60039Z" fill="#ABABAB"/>
<path d="M10.3004 3.95039C10.7146 3.95039 11.0504 3.6146 11.0504 3.20039C11.0504 2.78618 10.7146 2.45039 10.3004 2.45039C9.88618 2.45039 9.55039 2.78618 9.55039 3.20039C9.55039 3.6146 9.88618 3.95039 10.3004 3.95039Z" fill="#ABABAB"/>
</svg>
