<svg width="79" height="27" viewBox="0 0 79 27" fill="none" xmlns="http://www.w3.org/2000/svg">
<path d="M0.768125 26.5V0.099999H4.44813V26.5H0.768125ZM1.96813 26.5V23.3H16.7681V26.5H1.96813ZM23.6866 26.5L17.0866 0.099999H21.0466L26.3266 23.18H26.6866L32.1266 0.099999H37.0866L42.4466 23.18H42.8066L48.2066 0.099999H52.0466L45.2866 26.5H40.0066L34.7666 3.46H34.4066L29.0466 26.5H23.6866ZM56.8619 26.5V0.099999H60.5419V12.7C62.0085 12.1933 63.4352 11.5133 64.8219 10.66C66.2352 9.78 67.5285 8.79333 68.7019 7.7C69.8752 6.58 70.9019 5.38 71.7819 4.1C72.6619 2.79333 73.3285 1.46 73.7819 0.099999H77.8619C77.3285 1.64666 76.6219 3.1 75.7419 4.46C74.8885 5.82 73.9019 7.06 72.7819 8.18C71.6885 9.3 70.5419 10.2733 69.3419 11.1C68.1685 11.9267 66.9952 12.5933 65.8219 13.1V13.62C67.1285 13.62 68.3019 13.7933 69.3419 14.14C70.4085 14.4867 71.3685 14.9933 72.2219 15.66C73.1019 16.3267 73.8752 17.18 74.5419 18.22C75.2352 19.26 75.8619 20.4867 76.4219 21.9L78.1019 26.5H73.9819L72.9019 22.98C72.2885 21.3 71.5685 19.9267 70.7419 18.86C69.9419 17.7667 68.9152 16.9533 67.6619 16.42C66.4352 15.86 64.8485 15.58 62.9019 15.58H60.5419V26.5H56.8619Z" fill="white"/>
</svg>
