<svg width="13" height="13" viewBox="0 0 13 13" fill="none" xmlns="http://www.w3.org/2000/svg">
<path d="M3.4 8.47118V8.97118H3.9H4.7V12.2567C2.26802 11.4887 0.5 9.21098 0.5 6.51629C0.5 3.19426 3.18932 0.5 6.5 0.5C9.81068 0.5 12.5 3.19426 12.5 6.51629C12.5 9.448 10.4109 11.8854 7.65 12.422V8.97118H9.1H9.6V8.47118V6.51629V6.01629H9.1H7.65V5.21303C7.65 5.1296 7.71982 5.0614 7.8 5.0614H9.1H9.6V4.5614V2.60652V2.10652H9.1H7.475C5.94318 2.10652 4.7 3.35461 4.7 4.88722V6.01629H3.9H3.4V6.51629V8.47118Z" fill="white" stroke="white"/>
</svg>
