<svg width="13" height="13" viewBox="0 0 13 13" fill="none" xmlns="http://www.w3.org/2000/svg">
<path d="M3.77 0.5H9.23C11.0339 0.5 12.5 1.96614 12.5 3.77V9.23C12.5 10.0973 12.1555 10.929 11.5422 11.5422C10.929 12.1555 10.0973 12.5 9.23 12.5H3.77C1.96614 12.5 0.5 11.0339 0.5 9.23V3.77C0.5 2.90274 0.844517 2.071 1.45776 1.45776C2.071 0.844517 2.90274 0.5 3.77 0.5ZM3.64 0.8C2.88678 0.8 2.16442 1.09921 1.63182 1.63182C1.09921 2.16442 0.8 2.88678 0.8 3.64V9.36C0.8 10.9296 2.07036 12.2 3.64 12.2H9.36C10.1132 12.2 10.8356 11.9008 11.3682 11.3682C11.9008 10.8356 12.2 10.1132 12.2 9.36V3.64C12.2 2.07036 10.9296 0.8 9.36 0.8H3.64ZM9.9125 2.775C9.99538 2.775 10.0749 2.80792 10.1335 2.86653C10.1921 2.92513 10.225 3.00462 10.225 3.0875C10.225 3.17038 10.1921 3.24987 10.1335 3.30847C10.0749 3.36708 9.99538 3.4 9.9125 3.4C9.82962 3.4 9.75013 3.36708 9.69153 3.30847C9.63292 3.24987 9.6 3.17038 9.6 3.0875C9.6 3.00462 9.63292 2.92513 9.69153 2.86653C9.75013 2.80792 9.82962 2.775 9.9125 2.775ZM6.5 3.75C7.22934 3.75 7.92882 4.03973 8.44454 4.55546C8.96027 5.07118 9.25 5.77065 9.25 6.5C9.25 7.22934 8.96027 7.92882 8.44454 8.44454C7.92882 8.96027 7.22934 9.25 6.5 9.25C5.77065 9.25 5.07118 8.96027 4.55546 8.44454C4.03973 7.92882 3.75 7.22934 3.75 6.5C3.75 5.77065 4.03973 5.07118 4.55546 4.55546C5.07118 4.03973 5.77065 3.75 6.5 3.75ZM6.5 4.05C5.85022 4.05 5.22705 4.30812 4.76759 4.76759C4.30812 5.22705 4.05 5.85022 4.05 6.5C4.05 7.14978 4.30812 7.77295 4.76759 8.23241C5.22705 8.69188 5.85022 8.95 6.5 8.95C7.14978 8.95 7.77295 8.69188 8.23241 8.23241C8.69188 7.77295 8.95 7.14978 8.95 6.5C8.95 5.85022 8.69188 5.22705 8.23241 4.76759C7.77295 4.30812 7.14978 4.05 6.5 4.05Z" fill="#005C53" stroke="white"/>
</svg>
