<svg width="12" height="13" viewBox="0 0 12 13" fill="none" xmlns="http://www.w3.org/2000/svg">
<path d="M9.97222 11.3333H10.4722V10.8333V7.3C10.4722 6.60435 10.2193 5.92938 9.75729 5.42536C9.29394 4.91989 8.65571 4.62667 7.98 4.62667C7.67285 4.62667 7.35479 4.7115 7.06222 4.86211V4.75333H6.56222H4.85722H4.35722V5.25333V10.8333V11.3333H4.85722H6.56222H7.06222V10.8333V7.54667C7.06222 7.26278 7.26175 7.11333 7.41167 7.11333C7.49123 7.11333 7.57735 7.14742 7.64806 7.22456C7.72011 7.30316 7.76722 7.41838 7.76722 7.54667V10.8333V11.3333H8.26722H9.97222ZM3.72056 11.3333H4.22056V10.8333V5.25333V4.75333H3.72056H2.02778H1.52778V5.25333V10.8333V11.3333H2.02778H3.72056ZM10.2778 1C10.4546 1 10.634 1.07623 10.7734 1.22839C10.9143 1.382 11 1.59896 11 1.83333V11.1667C11 11.401 10.9143 11.618 10.7734 11.7716C10.634 11.9238 10.4546 12 10.2778 12H1.72222C1.54541 12 1.36603 11.9238 1.22656 11.7716C1.08575 11.618 1 11.401 1 11.1667V1.83333C1 1.59896 1.08575 1.382 1.22656 1.22839C1.36603 1.07623 1.54541 1 1.72222 1H10.2778ZM2.87111 4.70667C3.29074 4.70667 3.68338 4.52442 3.96565 4.21649C4.24659 3.91001 4.39778 3.50296 4.39778 3.08667C4.39778 2.23639 3.75932 1.46 2.87111 1.46C2.44986 1.46 2.05567 1.64295 1.77225 1.95213C1.49017 2.25986 1.33833 2.66861 1.33833 3.08667C1.33833 3.94497 1.99026 4.70667 2.87111 4.70667Z" fill="white" stroke="white"/>
</svg>
